<?xml version="1.0" encoding="utf-8"?>
<!-- Generator: Adobe Illustrator 21.0.0, SVG Export Plug-In . SVG Version: 6.00 Build 0)  -->
<svg version="1.1" id="Ebene_1" xmlns="http://www.w3.org/2000/svg" xmlns:xlink="http://www.w3.org/1999/xlink" x="0px" y="0px"
	 viewBox="0 0 413.9 248.7" style="enable-background:new 0 0 413.9 248.7;" xml:space="preserve">
<style type="text/css">
	.st0{font-family:'SanFranciscoDisplay-Bold';}
	.st1{font-size:12px;}
</style>
<g>
	<path d="M0,19.9V13h3.9v0.9h-3v6H0z"/>
	<path d="M0,32.9v-14h0.9v14H0z"/>
	<path d="M0,45.9v-14h0.9v14H0z"/>
	<path d="M0,58.9v-14h0.9v14H0z"/>
	<path d="M0,71.9v-14h0.9v14H0z"/>
	<path d="M0,84.9v-14h0.9v14H0z"/>
	<path d="M0,97.9v-14h0.9v14H0z"/>
	<path d="M0,110.9v-14h0.9v14H0z"/>
	<path d="M0,123.9v-14h0.9v14H0z"/>
	<path d="M0,136.9v-14h0.9v14H0z"/>
	<path d="M0,143.9v-8h0.9v7.1h3v0.9H0z"/>
	<path d="M7,175.9V169h3.9v0.9h-3v6H7z"/>
	<path d="M7,188.9v-14h0.9v14H7z"/>
	<path d="M7,195.9v-8h0.9v7.1h3v0.9H7z"/>
	<path d="M119,208.9v-8h0.9v7.1h3v0.9H119z"/>
	<path d="M200.2,225v-6.6h6.6v6.6H200.2z"/>
	<path d="M123,208.9V208h6.8v0.9H123z"/>
	<path d="M130,208.9V208h6.8v0.9H130z"/>
	<path d="M137,208.9V208h6.8v0.9H137z"/>
	<path d="M144,208.9V208h6.8v0.9H144z"/>
	<path d="M151,208.9V208h6.8v0.9H151z"/>
	<path d="M158,208.9V208h6.8v0.9H158z"/>
	<path d="M165,208.9V208h6.8v0.9H165z"/>
	<path d="M172,208.9V208h6.8v0.9H172z"/>
	<path d="M179,208.9V208h6.8v0.9H179z"/>
	<path d="M186,208.9V208h6.8v0.9H186z"/>
	<path d="M193,208.9V208h6.8v0.9H193z"/>
	<path d="M203.9,214.9v-6h3v0.9h-2.1v5.1H203.9z M202.1,214.9v-5.1H200v-0.9h3v6H202.1z M200,208v-0.9h2.1v-6.2h0.9v7.1H200z
		 M203.9,208v-7.1h0.9v6.2h2.1v0.9H203.9z"/>
	<path d="M207,208.9V208h6.8v0.9H207z"/>
	<path d="M214,208.9V208h6.8v0.9H214z"/>
	<path d="M221,208.9V208h6.8v0.9H221z"/>
	<path d="M228,208.9V208h6.8v0.9H228z"/>
	<path d="M235,208.9V208h6.8v0.9H235z"/>
	<path d="M242,208.9V208h6.8v0.9H242z"/>
	<path d="M249,208.9V208h6.8v0.9H249z"/>
	<path d="M256,208.9V208h6.8v0.9H256z"/>
	<path d="M263,208.9V208h6.8v0.9H263z"/>
	<path d="M270,208.9V208h6.8v0.9H270z"/>
	<path d="M277,208.9V208h6.8v0.9H277z"/>
	<path d="M284,208.9V208h6.8v0.9H284z"/>
	<path d="M291,208.9V208h6.8v0.9H291z"/>
	<path d="M298,208.9V208h6.8v0.9H298z"/>
	<path d="M305,208.9V208h6.8v0.9H305z"/>
	<path d="M312,208.9V208h6.8v0.9H312z"/>
	<path d="M319,208.9V208h6.8v0.9H319z"/>
	<path d="M326,208.9V208h6.8v0.9H326z"/>
	<path d="M333,208.9V208h6.8v0.9H333z"/>
	<path d="M340,208.9V208h6.8v0.9H340z"/>
	<path d="M347,208.9V208h6.8v0.9H347z"/>
	<path d="M354,208.9V208h6.8v0.9H354z"/>
	<path d="M361,208.9V208h6.8v0.9H361z"/>
	<path d="M368,208.9V208h6.8v0.9H368z"/>
	<path d="M375,208.9V208h6.8v0.9H375z"/>
	<path d="M382,208.9V208h6.8v0.9H382z"/>
	<path d="M389,208.9V208h6.8v0.9H389z"/>
	<path d="M396,208.9V208h6.8v0.9H396z"/>
	<path d="M403,208.9V208h6.8v0.9H403z"/>
	<path d="M410,208.9V208h3v-7.1h0.9v8H410z"/>
	<path d="M11,195.9V195h6.8v0.9H11z"/>
	<path d="M18,195.9V195h6.8v0.9H18z"/>
	<path d="M25,195.9V195h6.8v0.9H25z"/>
	<path d="M32,195.9V195h6.8v0.9H32z"/>
	<path d="M39,195.9V195h6.8v0.9H39z"/>
	<path d="M46,195.9V195h6.8v0.9H46z"/>
	<path d="M53,195.9V195h6.8v0.9H53z"/>
	<path d="M60,195.9V195h6.8v0.9H60z"/>
	<path d="M67,195.9V195h6.8v0.9H67z"/>
	<path d="M74,195.9V195h6.8v0.9H74z"/>
	<path d="M81,195.9V195h6.8v0.9H81z"/>
	<path d="M88,195.9V195h6.8v0.9H88z"/>
	<path d="M95,195.9V195h6.8v0.9H95z"/>
	<path d="M102,195.9V195h3v-7.1h0.9v8H102z"/>
	<path d="M119,201.9v-14h0.9v14H119z"/>
	<path d="M147,195.9v-8h0.9v7.1h3v0.9H147z"/>
	<path d="M151,195.9V195h6.8v0.9H151z"/>
	<path d="M158,195.9V195h6.8v0.9H158z"/>
	<path d="M165,195.9V195h6.8v0.9H165z"/>
	<path d="M172,195.9V195h6.8v0.9H172z"/>
	<path d="M179,195.9V195h6.8v0.9H179z"/>
	<path d="M186,195.9V195h6.8v0.9H186z"/>
	<path d="M193,195.9V195h6.8v0.9H193z"/>
	<path d="M200.2,199v-6.6h6.6v6.6H200.2z"/>
	<path d="M207,195.9V195h6.8v0.9H207z"/>
	<path d="M214,195.9V195h6.8v0.9H214z"/>
	<path d="M221,195.9V195h6.8v0.9H221z"/>
	<path d="M228,195.9V195h6.8v0.9H228z"/>
	<path d="M235,195.9V195h6.8v0.9H235z"/>
	<path d="M242,195.9V195h6.8v0.9H242z"/>
	<path d="M249,195.9V195h3v-7.1h0.9v8H249z"/>
	<path d="M294,195.9v-8h0.9v7.1h3v0.9H294z"/>
	<path d="M298,195.9V195h6.8v0.9H298z"/>
	<path d="M305,195.9V195h6.8v0.9H305z"/>
	<path d="M312,195.9V195h6.8v0.9H312z"/>
	<path d="M319,195.9V195h6.8v0.9H319z"/>
	<path d="M326,195.9V195h6.8v0.9H326z"/>
	<path d="M333,195.9V195h6.8v0.9H333z"/>
	<path d="M340,195.9V195h6.8v0.9H340z"/>
	<path d="M347,195.9V195h6.8v0.9H347z"/>
	<path d="M354,195.9V195h6.8v0.9H354z"/>
	<path d="M361,195.9V195h6.8v0.9H361z"/>
	<path d="M368,195.9V195h6.8v0.9H368z"/>
	<path d="M375,195.9V195h6.8v0.9H375z"/>
	<path d="M382,195.9V195h6.8v0.9H382z"/>
	<path d="M389,195.9V195h3v-7.1h0.9v8H389z"/>
	<path d="M413,201.9v-14h0.9v14H413z"/>
	<path d="M102.2,186v-6.6h6.6v6.6H102.2z"/>
	<path d="M109,182v-0.9h6.8v0.9H109z M109,183.8v-0.9h6.8v0.9H109z"/>
	<path d="M119.9,188.9v-6h3v0.9h-2.1v5.1H119.9z M118.1,188.9v-5.1H116v-0.9h3v6H118.1z M116,182v-0.9h2.1v-6.2h0.9v7.1H116z
		 M119.9,182v-7.1h0.9v6.2h2.1v0.9H119.9z"/>
	<path d="M123,182v-0.9h6.8v0.9H123z M123,183.8v-0.9h6.8v0.9H123z"/>
	<path d="M130,182v-0.9h6.8v0.9H130z M130,183.8v-0.9h6.8v0.9H130z"/>
	<path d="M137,182v-0.9h6.8v0.9H137z M137,183.8v-0.9h6.8v0.9H137z"/>
	<path d="M144.2,186v-6.6h6.6v6.6H144.2z"/>
	<path d="M249.2,186v-6.6h6.6v6.6H249.2z"/>
	<path d="M256,182v-0.9h6.8v0.9H256z M256,183.8v-0.9h6.8v0.9H256z"/>
	<path d="M263,182v-0.9h6.8v0.9H263z M263,183.8v-0.9h6.8v0.9H263z"/>
	<path d="M270,182v-0.9h6.8v0.9H270z M270,183.8v-0.9h6.8v0.9H270z"/>
	<path d="M277,182v-0.9h6.8v0.9H277z M277,183.8v-0.9h6.8v0.9H277z"/>
	<path d="M284,182v-0.9h6.8v0.9H284z M284,183.8v-0.9h6.8v0.9H284z"/>
	<path d="M291.2,186v-6.6h6.6v6.6H291.2z"/>
	<path d="M392,188.9v-14h0.9v14H392z"/>
	<path d="M413,188.9v-14h0.9v14H413z"/>
	<path d="M11,169.9V169h6.8v0.9H11z"/>
	<path d="M18,169.9V169h6.8v0.9H18z"/>
	<path d="M25,169.9V169h6.8v0.9H25z"/>
	<path d="M32,169.9V169h6.8v0.9H32z"/>
	<path d="M39,169.9V169h6.8v0.9H39z"/>
	<path d="M46,169.9V169h6.8v0.9H46z"/>
	<path d="M53,169.9V169h6.8v0.9H53z"/>
	<path d="M60,169.9V169h6.8v0.9H60z"/>
	<path d="M67,169.9V169h6.8v0.9H67z"/>
	<path d="M74,169.9V169h6.8v0.9H74z"/>
	<path d="M81,169.9V169h6.8v0.9H81z"/>
	<path d="M88,169.9V169h6.8v0.9H88z"/>
	<path d="M95,169.9V169h6.8v0.9H95z"/>
	<path d="M105,175.9v-6h-3V169h3.8v6.9H105z"/>
	<path d="M119,175.9v-14h0.9v14H119z"/>
	<path d="M147,175.9V169h3.9v0.9h-3v6H147z"/>
	<path d="M151,169.9V169h6.8v0.9H151z"/>
	<path d="M158,169.9V169h6.8v0.9H158z"/>
	<path d="M165,169.9V169h6.8v0.9H165z"/>
	<path d="M172,169.9V169h6.8v0.9H172z"/>
	<path d="M179,169.9V169h6.8v0.9H179z"/>
	<path d="M186,169.9V169h6.8v0.9H186z"/>
	<path d="M193,169.9V169h6.8v0.9H193z"/>
	<path d="M200,169.9V169h6.8v0.9H200z"/>
	<path d="M207,169.9V169h6.8v0.9H207z"/>
	<path d="M214,169.9V169h6.8v0.9H214z"/>
	<path d="M221,169.9V169h6.8v0.9H221z"/>
	<path d="M228,169.9V169h6.8v0.9H228z"/>
	<path d="M235,169.9V169h6.8v0.9H235z"/>
	<path d="M242,169.9V169h6.8v0.9H242z"/>
	<path d="M252,175.9v-6h-3V169h3.8v6.9H252z"/>
	<path d="M294,175.9V169h3.9v0.9h-3v6H294z"/>
	<path d="M298,169.9V169h6.8v0.9H298z"/>
	<path d="M305,169.9V169h6.8v0.9H305z"/>
	<path d="M312,169.9V169h6.8v0.9H312z"/>
	<path d="M319,169.9V169h6.8v0.9H319z"/>
	<path d="M326.2,173v-6.6h6.6v6.6H326.2z"/>
	<path d="M333,169.9V169h6.8v0.9H333z"/>
	<path d="M340,169.9V169h6.8v0.9H340z"/>
	<path d="M347,169.9V169h6.8v0.9H347z"/>
	<path d="M354.2,173v-6.6h6.6v6.6H354.2z"/>
	<path d="M361,169.9V169h6.8v0.9H361z"/>
	<path d="M368,169.9V169h6.8v0.9H368z"/>
	<path d="M375,169.9V169h6.8v0.9H375z"/>
	<path d="M382,169.9V169h6.8v0.9H382z"/>
	<path d="M392,175.9v-6h-3V169h3.8v6.9H392z"/>
	<path d="M413,175.9v-14h0.9v14H413z"/>
	<path d="M119,162.9v-14h0.9v14H119z"/>
	<path d="M329,162.9v-14h0.9v14H329z"/>
	<path d="M357,162.9v-14h0.9v14H357z"/>
	<path d="M413,162.9v-14h0.9v14H413z"/>
	<path d="M4,143.9V143h6.8v0.9H4z"/>
	<path d="M11,143.9V143h6.8v0.9H11z"/>
	<path d="M18,143.9V143h6.8v0.9H18z"/>
	<path d="M25,143.9V143h6.8v0.9H25z"/>
	<path d="M32,143.9V143h6.8v0.9H32z"/>
	<path d="M39,143.9V143h6.8v0.9H39z"/>
	<path d="M46,143.9V143h6.8v0.9H46z"/>
	<path d="M53,143.9V143h6.8v0.9H53z"/>
	<path d="M60,143.9V143h3v-7.1h0.9v8H60z"/>
	<path d="M119,149.9v-14h0.9v14H119z"/>
	<path d="M126,143.9v-8h0.9v7.1h3v0.9H126z"/>
	<path d="M130,143.9V143h6.8v0.9H130z"/>
	<path d="M137,143.9V143h6.8v0.9H137z"/>
	<path d="M144,143.9V143h6.8v0.9H144z"/>
	<path d="M151,143.9V143h6.8v0.9H151z"/>
	<path d="M158,143.9V143h6.8v0.9H158z"/>
	<path d="M165,143.9V143h6.8v0.9H165z"/>
	<path d="M172,143.9V143h6.8v0.9H172z"/>
	<path d="M179,143.9V143h6.8v0.9H179z"/>
	<path d="M186,143.9V143h6.8v0.9H186z"/>
	<path d="M193,143.9V143h6.8v0.9H193z"/>
	<path d="M200,143.9V143h6.8v0.9H200z"/>
	<path d="M207,143.9V143h6.8v0.9H207z"/>
	<path d="M214,143.9V143h6.8v0.9H214z"/>
	<path d="M221,143.9V143h3v-7.1h0.9v8H221z"/>
	<path d="M294,143.9v-8h0.9v7.1h3v0.9H294z"/>
	<path d="M298,143.9V143h6.8v0.9H298z"/>
	<path d="M305,143.9V143h6.8v0.9H305z"/>
	<path d="M312,143.9V143h6.8v0.9H312z"/>
	<path d="M319,143.9V143h6.8v0.9H319z"/>
	<path d="M326.2,147v-6.6h6.6v6.6H326.2z"/>
	<path d="M333,143.9V143h6.8v0.9H333z"/>
	<path d="M340,143.9V143h6.8v0.9H340z"/>
	<path d="M347,143.9V143h6.8v0.9H347z"/>
	<path d="M354.2,147v-6.6h6.6v6.6H354.2z"/>
	<path d="M361,143.9V143h6.8v0.9H361z"/>
	<path d="M368,143.9V143h6.8v0.9H368z"/>
	<path d="M375,143.9V143h6.8v0.9H375z"/>
	<path d="M382,143.9V143h6.8v0.9H382z"/>
	<path d="M389,143.9V143h3v-7.1h0.9v8H389z"/>
	<path d="M413,149.9v-14h0.9v14H413z"/>
	<path d="M63,97.9v-14h0.9v14H63z"/>
	<path d="M60.2,108v-6.6h6.6v6.6H60.2z"/>
	<path d="M63,123.9v-14h0.9v14H63z"/>
	<path d="M60.2,134v-6.6h6.6v6.6H60.2z"/>
	<path d="M67,131.4v-1.8h6.8v1.8H67z"/>
	<path d="M74,131.4v-1.8h6.8v1.8H74z"/>
	<path d="M81,131.4v-1.8h6.8v1.8H81z"/>
	<path d="M91.4,125.9v1.7h2.2v0.8h-2.2v3.3c0,0.4,0.1,0.8,0.3,0.9s0.5,0.3,0.9,0.3h1.1v0.8h-1.2c-0.7,0-1.3-0.1-1.6-0.4
		s-0.5-0.8-0.5-1.5v-3.3h-1.6v-0.8h1.6v-1.7H91.4z"/>
	<path d="M96.2,125.6h4.1v0.9h-3.1v2c0.2-0.1,0.3-0.1,0.5-0.1s0.3,0,0.5,0c0.8,0,1.5,0.2,2,0.7s0.7,1.2,0.7,2c0,0.8-0.3,1.5-0.8,2
		s-1.2,0.7-2.1,0.7c-0.4,0-0.8,0-1.2-0.1s-0.7-0.1-0.9-0.3v-1.1c0.3,0.2,0.7,0.3,1,0.4s0.7,0.1,1,0.1c0.6,0,1.1-0.2,1.4-0.5
		s0.5-0.8,0.5-1.3c0-0.6-0.2-1-0.5-1.3s-0.8-0.5-1.4-0.5c-0.3,0-0.6,0-0.8,0.1s-0.5,0.2-0.8,0.3V125.6z"/>
	<path d="M102,131.4v-1.8h6.8v1.8H102z"/>
	<path d="M109,131.4v-1.8h6.8v1.8H109z"/>
	<path d="M118.6,136.9v-5.5H116v-1.8h2.6v-6.6h1.7v6.6h2.6v1.8h-2.6v5.5H118.6z"/>
	<path d="M123.2,134v-6.6h6.6v6.6H123.2z"/>
	<path d="M221.2,134v-6.6h6.6v6.6H221.2z"/>
	<path d="M228,131.4v-1.8h6.8v1.8H228z"/>
	<path d="M235,131.4v-1.8h6.8v1.8H235z"/>
	<path d="M242,131.4v-1.8h6.8v1.8H242z"/>
	<path d="M249,131.4v-1.8h6.8v1.8H249z"/>
	<path d="M259.4,125.9v1.7h2.2v0.8h-2.2v3.3c0,0.4,0.1,0.8,0.3,0.9s0.5,0.3,0.9,0.3h1.1v0.8h-1.2c-0.7,0-1.3-0.1-1.6-0.4
		s-0.5-0.8-0.5-1.5v-3.3h-1.6v-0.8h1.6v-1.7H259.4z"/>
	<path d="M264.2,125.6h4.1v0.9h-3.1v2c0.2-0.1,0.3-0.1,0.5-0.1s0.3,0,0.5,0c0.8,0,1.5,0.2,2,0.7s0.7,1.2,0.7,2c0,0.8-0.3,1.5-0.8,2
		s-1.2,0.7-2.1,0.7c-0.4,0-0.8,0-1.2-0.1s-0.7-0.1-0.9-0.3v-1.1c0.3,0.2,0.7,0.3,1,0.4s0.7,0.1,1,0.1c0.6,0,1.1-0.2,1.4-0.5
		s0.5-0.8,0.5-1.3c0-0.6-0.2-1-0.5-1.3s-0.8-0.5-1.4-0.5c-0.3,0-0.6,0-0.8,0.1s-0.5,0.2-0.8,0.3V125.6z"/>
	<path d="M270,131.4v-1.8h6.8v1.8H270z"/>
	<path d="M277,131.4v-1.8h6.8v1.8H277z"/>
	<path d="M284,131.4v-1.8h6.8v1.8H284z"/>
	<path d="M291.2,134v-6.6h6.6v6.6H291.2z"/>
	<path d="M392,136.9v-14h0.9v14H392z"/>
	<path d="M413,136.9v-14h0.9v14H413z"/>
	<path d="M119,123.9v-14h0.9v14H119z"/>
	<path d="M126,123.9v-14h0.9v14H126z"/>
	<path d="M224,123.9v-14h0.9v14H224z"/>
	<path d="M294,123.9v-14h0.9v14H294z"/>
	<path d="M392,123.9v-14h0.9v14H392z"/>
	<path d="M413,123.9v-14h0.9v14H413z"/>
	<path d="M67,105.4v-1.8h6.8v1.8H67z"/>
	<path d="M74,105.4v-1.8h6.8v1.8H74z"/>
	<path d="M81,105.4v-1.8h6.8v1.8H81z"/>
	<path d="M91.4,99.9v1.7h2.2v0.8h-2.2v3.3c0,0.4,0.1,0.8,0.3,0.9s0.5,0.3,0.9,0.3h1.1v0.8h-1.2c-0.7,0-1.3-0.1-1.6-0.4
		s-0.5-0.8-0.5-1.5v-3.3h-1.6v-0.8h1.6v-1.7H91.4z"/>
	<path d="M99.1,100.6l-2.5,4.2h2.5V100.6z M98.9,99.6h1.3v5.2h1.1v0.9h-1.1v1.9h-1.1v-1.9h-3.4v-1L98.9,99.6z"/>
	<path d="M102,105.4v-1.8h6.8v1.8H102z"/>
	<path d="M109,105.4v-1.8h6.8v1.8H109z"/>
	<path d="M118.6,110.9v-5.5H116v-1.8h2.6v-6.6h1.7v6.6h2.6v1.8h-2.6v5.5H118.6z"/>
	<path d="M123.2,108v-6.6h6.6v6.6H123.2z"/>
	<path d="M221.2,108v-6.6h6.6v6.6H221.2z"/>
	<path d="M228,105.4v-1.8h6.8v1.8H228z"/>
	<path d="M235,105.4v-1.8h6.8v1.8H235z"/>
	<path d="M242,105.4v-1.8h6.8v1.8H242z"/>
	<path d="M249,105.4v-1.8h6.8v1.8H249z"/>
	<path d="M259.4,99.9v1.7h2.2v0.8h-2.2v3.3c0,0.4,0.1,0.8,0.3,0.9s0.5,0.3,0.9,0.3h1.1v0.8h-1.2c-0.7,0-1.3-0.1-1.6-0.4
		s-0.5-0.8-0.5-1.5v-3.3h-1.6v-0.8h1.6v-1.7H259.4z"/>
	<path d="M267.1,100.6l-2.5,4.2h2.5V100.6z M266.9,99.6h1.3v5.2h1.1v0.9h-1.1v1.9h-1.1v-1.9h-3.4v-1L266.9,99.6z"/>
	<path d="M270,105.4v-1.8h6.8v1.8H270z"/>
	<path d="M277,105.4v-1.8h6.8v1.8H277z"/>
	<path d="M284,105.4v-1.8h6.8v1.8H284z"/>
	<path d="M291.2,108v-6.6h6.6v6.6H291.2z"/>
	<path d="M392,110.9v-14h0.9v14H392z"/>
	<path d="M413,110.9v-14h0.9v14H413z"/>
	<path d="M119,97.9v-14h0.9v14H119z"/>
	<path d="M126,97.9v-14h0.9v14H126z"/>
	<path d="M224,97.9v-14h0.9v14H224z"/>
	<path d="M294,97.9v-14h0.9v14H294z"/>
	<path d="M392,97.9v-14h0.9v14H392z"/>
	<path d="M413,97.9v-14h0.9v14H413z"/>
	<path d="M60.2,82v-6.6h6.6V82H60.2z"/>
	<path d="M67,79.4v-1.8h6.8v1.8H67z"/>
	<path d="M74,79.4v-1.8h6.8v1.8H74z"/>
	<path d="M81,79.4v-1.8h6.8v1.8H81z"/>
	<path d="M91.4,73.9v1.7h2.2v0.8h-2.2v3.3c0,0.4,0.1,0.8,0.3,0.9s0.5,0.3,0.9,0.3h1.1v0.8h-1.2c-0.7,0-1.3-0.1-1.6-0.4
		s-0.5-0.8-0.5-1.5v-3.3h-1.6v-0.8h1.6v-1.7H91.4z"/>
	<path d="M99.3,77.3c0.5,0.1,0.9,0.4,1.2,0.7s0.4,0.8,0.4,1.3c0,0.7-0.2,1.3-0.7,1.7s-1.2,0.6-2.1,0.6c-0.4,0-0.7,0-1.1-0.1
		s-0.8-0.2-1.1-0.3v-1.1c0.4,0.2,0.7,0.3,1.1,0.4s0.7,0.1,1.1,0.1c0.6,0,1.1-0.1,1.4-0.4s0.5-0.7,0.5-1.2c0-0.5-0.2-0.8-0.5-1.1
		s-0.8-0.4-1.3-0.4h-0.8v-0.9h0.8c0.5,0,0.9-0.1,1.2-0.3s0.4-0.5,0.4-0.9c0-0.4-0.1-0.7-0.4-0.9s-0.6-0.3-1.1-0.3
		c-0.3,0-0.6,0-1,0.1s-0.7,0.2-1.1,0.3v-1c0.4-0.1,0.8-0.2,1.2-0.3s0.6-0.1,0.9-0.1c0.8,0,1.4,0.2,1.9,0.6s0.7,0.9,0.7,1.6
		c0,0.4-0.1,0.8-0.4,1.1S99.8,77.2,99.3,77.3z"/>
	<path d="M102,79.4v-1.8h6.8v1.8H102z"/>
	<path d="M109,79.4v-1.8h6.8v1.8H109z"/>
	<path d="M118.6,84.9v-5.5H116v-1.8h2.6v-6.6h1.7v6.6h2.6v1.8h-2.6v5.5H118.6z"/>
	<path d="M123.2,82v-6.6h6.6V82H123.2z"/>
	<path d="M221.2,82v-6.6h6.6V82H221.2z"/>
	<path d="M228,79.4v-1.8h6.8v1.8H228z"/>
	<path d="M235,79.4v-1.8h6.8v1.8H235z"/>
	<path d="M242,79.4v-1.8h6.8v1.8H242z"/>
	<path d="M249,79.4v-1.8h6.8v1.8H249z"/>
	<path d="M259.4,73.9v1.7h2.2v0.8h-2.2v3.3c0,0.4,0.1,0.8,0.3,0.9s0.5,0.3,0.9,0.3h1.1v0.8h-1.2c-0.7,0-1.3-0.1-1.6-0.4
		s-0.5-0.8-0.5-1.5v-3.3h-1.6v-0.8h1.6v-1.7H259.4z"/>
	<path d="M267.3,77.3c0.5,0.1,0.9,0.4,1.2,0.7s0.4,0.8,0.4,1.3c0,0.7-0.2,1.3-0.7,1.7s-1.2,0.6-2.1,0.6c-0.4,0-0.7,0-1.1-0.1
		s-0.8-0.2-1.1-0.3v-1.1c0.4,0.2,0.7,0.3,1.1,0.4s0.7,0.1,1.1,0.1c0.6,0,1.1-0.1,1.4-0.4s0.5-0.7,0.5-1.2c0-0.5-0.2-0.8-0.5-1.1
		s-0.8-0.4-1.3-0.4h-0.8v-0.9h0.8c0.5,0,0.9-0.1,1.2-0.3s0.4-0.5,0.4-0.9c0-0.4-0.1-0.7-0.4-0.9s-0.6-0.3-1.1-0.3
		c-0.3,0-0.6,0-1,0.1s-0.7,0.2-1.1,0.3v-1c0.4-0.1,0.8-0.2,1.2-0.3s0.6-0.1,0.9-0.1c0.8,0,1.4,0.2,1.9,0.6s0.7,0.9,0.7,1.6
		c0,0.4-0.1,0.8-0.4,1.1S267.8,77.2,267.3,77.3z"/>
	<path d="M270,79.4v-1.8h6.8v1.8H270z"/>
	<path d="M277,79.4v-1.8h6.8v1.8H277z"/>
	<path d="M284,79.4v-1.8h6.8v1.8H284z"/>
	<path d="M291.2,82v-6.6h6.6V82H291.2z"/>
	<path d="M392,84.9v-14h0.9v14H392z"/>
	<path d="M413,84.9v-14h0.9v14H413z"/>
	<path d="M60.2,30v-6.6h6.6V30H60.2z"/>
	<path d="M63,45.9v-14h0.9v14H63z"/>
	<path d="M60.2,56v-6.6h6.6V56H60.2z"/>
	<path d="M63,71.9v-14h0.9v14H63z"/>
	<path d="M119,71.9v-14h0.9v14H119z"/>
	<path d="M126,71.9v-14h0.9v14H126z"/>
	<path d="M224,71.9v-14h0.9v14H224z"/>
	<path d="M294,71.9v-14h0.9v14H294z"/>
	<path d="M392,71.9v-14h0.9v14H392z"/>
	<path d="M413,71.9v-14h0.9v14H413z"/>
	<path d="M67,53.4v-1.8h6.8v1.8H67z"/>
	<path d="M74,53.4v-1.8h6.8v1.8H74z"/>
	<path d="M81,53.4v-1.8h6.8v1.8H81z"/>
	<path d="M91.4,47.9v1.7h2.2v0.8h-2.2v3.3c0,0.4,0.1,0.8,0.3,0.9s0.5,0.3,0.9,0.3h1.1v0.8h-1.2c-0.7,0-1.3-0.1-1.6-0.4
		s-0.5-0.8-0.5-1.5v-3.3h-1.6v-0.8h1.6v-1.7H91.4z"/>
	<path d="M97.1,54.7h3.7v0.9h-4.9v-0.9c0.7-0.7,1.3-1.3,1.8-1.9s0.8-0.9,1-1.1c0.4-0.4,0.6-0.8,0.7-1.1s0.2-0.5,0.2-0.8
		c0-0.4-0.1-0.8-0.4-1.1s-0.6-0.4-1.1-0.4c-0.3,0-0.7,0.1-1,0.2s-0.7,0.3-1.1,0.5V48c0.4-0.2,0.7-0.3,1.1-0.4s0.7-0.1,1.1-0.1
		c0.8,0,1.4,0.2,1.9,0.6s0.7,1,0.7,1.6c0,0.3-0.1,0.7-0.2,1s-0.4,0.7-0.8,1.1c-0.2,0.2-0.5,0.6-0.9,1S97.9,53.9,97.1,54.7z"/>
	<path d="M102,53.4v-1.8h6.8v1.8H102z"/>
	<path d="M109,53.4v-1.8h6.8v1.8H109z"/>
	<path d="M118.6,58.9v-5.5H116v-1.8h2.6v-6.6h1.7v6.6h2.6v1.8h-2.6v5.5H118.6z"/>
	<path d="M123.2,56v-6.6h6.6V56H123.2z"/>
	<path d="M221.2,56v-6.6h6.6V56H221.2z"/>
	<path d="M228,53.4v-1.8h6.8v1.8H228z"/>
	<path d="M235,53.4v-1.8h6.8v1.8H235z"/>
	<path d="M242,53.4v-1.8h6.8v1.8H242z"/>
	<path d="M249,53.4v-1.8h6.8v1.8H249z"/>
	<path d="M259.4,47.9v1.7h2.2v0.8h-2.2v3.3c0,0.4,0.1,0.8,0.3,0.9s0.5,0.3,0.9,0.3h1.1v0.8h-1.2c-0.7,0-1.3-0.1-1.6-0.4
		s-0.5-0.8-0.5-1.5v-3.3h-1.6v-0.8h1.6v-1.7H259.4z"/>
	<path d="M265.1,54.7h3.7v0.9h-4.9v-0.9c0.7-0.7,1.3-1.3,1.8-1.9s0.8-0.9,1-1.1c0.4-0.4,0.6-0.8,0.7-1.1s0.2-0.5,0.2-0.8
		c0-0.4-0.1-0.8-0.4-1.1s-0.6-0.4-1.1-0.4c-0.3,0-0.7,0.1-1,0.2s-0.7,0.3-1.1,0.5V48c0.4-0.2,0.7-0.3,1.1-0.4s0.7-0.1,1.1-0.1
		c0.8,0,1.4,0.2,1.9,0.6s0.7,1,0.7,1.6c0,0.3-0.1,0.7-0.2,1s-0.4,0.7-0.8,1.1c-0.2,0.2-0.5,0.6-0.9,1S265.9,53.9,265.1,54.7z"/>
	<path d="M270,53.4v-1.8h6.8v1.8H270z"/>
	<path d="M277,53.4v-1.8h6.8v1.8H277z"/>
	<path d="M284,53.4v-1.8h6.8v1.8H284z"/>
	<path d="M291.2,56v-6.6h6.6V56H291.2z"/>
	<path d="M392,58.9v-14h0.9v14H392z"/>
	<path d="M413,58.9v-14h0.9v14H413z"/>
	<path d="M119,45.9v-14h0.9v14H119z"/>
	<path d="M126,45.9v-14h0.9v14H126z"/>
	<path d="M224,45.9v-14h0.9v14H224z"/>
	<path d="M294,45.9v-14h0.9v14H294z"/>
	<path d="M392,45.9v-14h0.9v14H392z"/>
	<path d="M413,45.9v-14h0.9v14H413z"/>
	<path d="M67,27.4v-1.8h6.8v1.8H67z"/>
	<path d="M74,27.4v-1.8h6.8v1.8H74z"/>
	<path d="M81,27.4v-1.8h6.8v1.8H81z"/>
	<path d="M91.4,21.9v1.7h2.2v0.8h-2.2v3.3c0,0.4,0.1,0.8,0.3,0.9s0.5,0.3,0.9,0.3h1.1v0.8h-1.2c-0.7,0-1.3-0.1-1.6-0.4
		s-0.5-0.8-0.5-1.5v-3.3h-1.6v-0.8h1.6v-1.7H91.4z"/>
	<path d="M96.6,28.7h1.7v-6.1l-2,1v-1l2-1h1.1v7.1h1.7v0.9h-4.4V28.7z"/>
	<path d="M102,27.4v-1.8h6.8v1.8H102z"/>
	<path d="M109,27.4v-1.8h6.8v1.8H109z"/>
	<path d="M118.6,32.9v-5.5H116v-1.8h2.6v-6.6h1.7v6.6h2.6v1.8h-2.6v5.5H118.6z"/>
	<path d="M123.2,30v-6.6h6.6V30H123.2z"/>
	<path d="M221.2,30v-6.6h6.6V30H221.2z"/>
	<path d="M228,27.4v-1.8h6.8v1.8H228z"/>
	<path d="M235,27.4v-1.8h6.8v1.8H235z"/>
	<path d="M242,27.4v-1.8h6.8v1.8H242z"/>
	<path d="M249,27.4v-1.8h6.8v1.8H249z"/>
	<path d="M259.4,21.9v1.7h2.2v0.8h-2.2v3.3c0,0.4,0.1,0.8,0.3,0.9s0.5,0.3,0.9,0.3h1.1v0.8h-1.2c-0.7,0-1.3-0.1-1.6-0.4
		s-0.5-0.8-0.5-1.5v-3.3h-1.6v-0.8h1.6v-1.7H259.4z"/>
	<path d="M264.6,28.7h1.7v-6.1l-2,1v-1l2-1h1.1v7.1h1.7v0.9h-4.4V28.7z"/>
	<path d="M270,27.4v-1.8h6.8v1.8H270z"/>
	<path d="M277,27.4v-1.8h6.8v1.8H277z"/>
	<path d="M284,27.4v-1.8h6.8v1.8H284z"/>
	<path d="M291.2,30v-6.6h6.6V30H291.2z"/>
	<path d="M392,32.9v-14h0.9v14H392z"/>
	<path d="M413,32.9v-14h0.9v14H413z"/>
	<path d="M4,13.9V13h6.8v0.9H4z"/>
	<path d="M11,13.9V13h6.8v0.9H11z"/>
	<path d="M18,13.9V13h6.8v0.9H18z"/>
	<path d="M25,13.9V13h6.8v0.9H25z"/>
	<path d="M32,13.9V13h6.8v0.9H32z"/>
	<path d="M39,13.9V13h6.8v0.9H39z"/>
	<path d="M46,13.9V13h6.8v0.9H46z"/>
	<path d="M53,13.9V13h6.8v0.9H53z"/>
	<path d="M63,19.9v-6h-3V13h3.8v6.9H63z"/>
	<path d="M119,19.9v-14h0.9v14H119z"/>
	<path d="M126,19.9V13h3.9v0.9h-3v6H126z"/>
	<path d="M130,13.9V13h6.8v0.9H130z"/>
	<path d="M137,13.9V13h6.8v0.9H137z"/>
	<path d="M144,13.9V13h6.8v0.9H144z"/>
	<path d="M151,13.9V13h6.8v0.9H151z"/>
	<path d="M158,13.9V13h6.8v0.9H158z"/>
	<path d="M165,13.9V13h6.8v0.9H165z"/>
	<path d="M172,13.9V13h6.8v0.9H172z"/>
	<path d="M179,13.9V13h6.8v0.9H179z"/>
	<path d="M186,13.9V13h6.8v0.9H186z"/>
	<path d="M193,13.9V13h6.8v0.9H193z"/>
	<path d="M200,13.9V13h6.8v0.9H200z"/>
	<path d="M207,13.9V13h6.8v0.9H207z"/>
	<path d="M214,13.9V13h6.8v0.9H214z"/>
	<path d="M224,19.9v-6h-3V13h3.8v6.9H224z"/>
	<path d="M294,19.9V13h3.9v0.9h-3v6H294z"/>
	<path d="M298,13.9V13h6.8v0.9H298z"/>
	<path d="M305,13.9V13h6.8v0.9H305z"/>
	<path d="M312,13.9V13h6.8v0.9H312z"/>
	<path d="M319,13.9V13h6.8v0.9H319z"/>
	<path d="M326,13.9V13h6.8v0.9H326z"/>
	<path d="M333,13.9V13h6.8v0.9H333z"/>
	<path d="M340,13.9V13h6.8v0.9H340z"/>
	<path d="M347,13.9V13h6.8v0.9H347z"/>
	<path d="M354,13.9V13h6.8v0.9H354z"/>
	<path d="M361,13.9V13h6.8v0.9H361z"/>
	<path d="M368,13.9V13h6.8v0.9H368z"/>
	<path d="M375,13.9V13h6.8v0.9H375z"/>
	<path d="M382,13.9V13h6.8v0.9H382z"/>
	<path d="M392,19.9v-6h-3V13h3.8v6.9H392z"/>
	<path d="M413,19.9v-14h0.9v14H413z"/>
	<path d="M119,6.9V0h3.9v0.9h-3v6H119z"/>
	<path d="M123,0.9V0h6.8v0.9H123z"/>
	<path d="M130,0.9V0h6.8v0.9H130z"/>
	<path d="M137,0.9V0h6.8v0.9H137z"/>
	<path d="M144,0.9V0h6.8v0.9H144z"/>
	<path d="M151,0.9V0h6.8v0.9H151z"/>
	<path d="M158,0.9V0h6.8v0.9H158z"/>
	<path d="M165,0.9V0h6.8v0.9H165z"/>
	<path d="M172,0.9V0h6.8v0.9H172z"/>
	<path d="M179,0.9V0h6.8v0.9H179z"/>
	<path d="M186,0.9V0h6.8v0.9H186z"/>
	<path d="M193,0.9V0h6.8v0.9H193z"/>
	<path d="M200,0.9V0h6.8v0.9H200z"/>
	<path d="M207,0.9V0h6.8v0.9H207z"/>
	<path d="M214,0.9V0h6.8v0.9H214z"/>
	<path d="M221,0.9V0h6.8v0.9H221z"/>
	<path d="M228,0.9V0h6.8v0.9H228z"/>
	<path d="M235,0.9V0h6.8v0.9H235z"/>
	<path d="M242,0.9V0h6.8v0.9H242z"/>
	<path d="M249,0.9V0h6.8v0.9H249z"/>
	<path d="M256,0.9V0h6.8v0.9H256z"/>
	<path d="M263,0.9V0h6.8v0.9H263z"/>
	<path d="M270,0.9V0h6.8v0.9H270z"/>
	<path d="M277,0.9V0h6.8v0.9H277z"/>
	<path d="M284,0.9V0h6.8v0.9H284z"/>
	<path d="M291,0.9V0h6.8v0.9H291z"/>
	<path d="M298,0.9V0h6.8v0.9H298z"/>
	<path d="M305,0.9V0h6.8v0.9H305z"/>
	<path d="M312,0.9V0h6.8v0.9H312z"/>
	<path d="M319,0.9V0h6.8v0.9H319z"/>
	<path d="M326,0.9V0h6.8v0.9H326z"/>
	<path d="M333,0.9V0h6.8v0.9H333z"/>
	<path d="M340,0.9V0h6.8v0.9H340z"/>
	<path d="M347,0.9V0h6.8v0.9H347z"/>
	<path d="M354,0.9V0h6.8v0.9H354z"/>
	<path d="M361,0.9V0h6.8v0.9H361z"/>
	<path d="M368,0.9V0h6.8v0.9H368z"/>
	<path d="M375,0.9V0h6.8v0.9H375z"/>
	<path d="M382,0.9V0h6.8v0.9H382z"/>
	<path d="M389,0.9V0h6.8v0.9H389z"/>
	<path d="M396,0.9V0h6.8v0.9H396z"/>
	<path d="M403,0.9V0h6.8v0.9H403z"/>
	<path d="M413,6.9v-6h-3V0h3.8v6.9H413z"/>
	<text transform="matrix(1 0 0 1 168.4324 186.0068)" class="st0 st1">ANTAGONIST</text>
	<text transform="matrix(1 0 0 1 333.3558 185.5879)" class="st0 st1">DMT</text>
	<text transform="matrix(1 0 0 1 160.6285 68.2294)"><tspan x="0" y="0" class="st0 st1">SYNC</tspan><tspan x="10.8" y="14.4" class="st0 st1">&amp;</tspan><tspan x="-3.1" y="28.8" class="st0 st1">PARSE</tspan></text>
	<text transform="matrix(1 0 0 1 321.3977 68.2292)"><tspan x="0" y="0" class="st0 st1">PROCESS</tspan><tspan x="21.5" y="14.4" class="st0 st1">&amp;</tspan><tspan x="9" y="28.8" class="st0 st1">INDEX</tspan></text>
	<text transform="matrix(1 0 0 1 32.4325 186.0068)" class="st0 st1">HEIMDAL</text>
	<path d="M175,228.6v-6.9h3.9v0.9h-3v6H175z"/>
	<path d="M175,241.6v-14h0.9v14H175z"/>
	<path d="M175,248.7v-8h0.9v7.1h3v0.9H175z"/>
	<path d="M179,248.7v-0.9h6.8v0.9H179z"/>
	<path d="M186,248.7v-0.9h6.8v0.9H186z"/>
	<path d="M193,248.7v-0.9h6.8v0.9H193z"/>
	<path d="M200,248.7v-0.9h6.8v0.9H200z"/>
	<path d="M207,248.7v-0.9h6.8v0.9H207z"/>
	<path d="M214,248.7v-0.9h6.8v0.9H214z"/>
	<path d="M221,248.7v-0.9h6.8v0.9H221z"/>
	<path d="M228,248.7v-0.9h3v-7.1h0.9v8H228z"/>
	<path d="M231,241.6v-14h0.9v14H231z"/>
	<path d="M179,222.7v-0.9h6.8v0.9H179z"/>
	<path d="M186,222.7v-0.9h6.8v0.9H186z"/>
	<path d="M193,222.7v-0.9h6.8v0.9H193z"/>
	<path d="M200,222.7v-0.9h6.8v0.9H200z"/>
	<path d="M207,222.7v-0.9h6.8v0.9H207z"/>
	<path d="M214,222.7v-0.9h6.8v0.9H214z"/>
	<path d="M221,222.7v-0.9h6.8v0.9H221z"/>
	<path d="M231,228.6v-6h-3v-0.9h3.8v6.9H231z"/>
	<text transform="matrix(1 0 0 1 180.4323 239.6191)" class="st0 st1">BIFRØST</text>
	<text transform="matrix(1 0 0 1 7.8592 82.0068)" class="st0 st1">EROWID</text>
</g>
</svg>
